{"asset":{"version":"2.0","generator":"THREE.GLTFExporter r175"},"scenes":[{"name":"AuxScene","nodes":[8]}],"scene":0,"nodes":[{"mesh":0},{"mesh":1},{"mesh":2},{"mesh":3},{"matrix":[0.07071067811865475,0,-0.07071067811865477,0,0,-0.1,0,0,0.07071067811865477,0,0.07071067811865475,0,0,0,0,1],"children":[0,1,2,3]},{"children":[4]},{"matrix":[1,0,0,0,0,1,0,0,0,0,1,0,-34.97503286391874,57.86278533935547,34.69219016830287,1],"children":[5]},{"children":[6]},{"children":[7]}],"bufferViews":[{"buffer":0,"byteOffset":0,"byteLength":8928,"target":34962,"byteStride":12},{"buffer":0,"byteOffset":8928,"byteLength":5952,"target":34962,"byteStride":8},{"buffer":0,"byteOffset":14880,"byteLength":8928,"target":34962,"byteStride":12},{"buffer":0,"byteOffset":23808,"byteLength":12240,"target":34962,"byteStride":12},{"buffer":0,"byteOffset":36048,"byteLength":8160,"target":34962,"byteStride":8},{"buffer":0,"byteOffset":44208,"byteLength":12240,"target":34962,"byteStride":12},{"buffer":0,"byteOffset":56448,"byteLength":23616,"target":34962,"byteStride":12},{"buffer":0,"byteOffset":80064,"byteLength":15744,"target":34962,"byteStride":8},{"buffer":0,"byteOffset":95808,"byteLength":23616,"target":34962,"byteStride":12},{"buffer":0,"byteOffset":119424,"byteLength":17136,"target":34962,"byteStride":12},{"buffer":0,"byteOffset":136560,"byteLength":11424,"target":34962,"byteStride":8},{"buffer":0,"byteOffset":147984,"byteLength":17136,"target":34962,"byteStride":12}],"buffers":[{"byteLength":165120,"uri":"data:application/octet-stream;base64,"}],"accessors":[{"bufferView":0,"componentType":5126,"count":744,"max":[798.1109619140625,603.5948486328125,42.599998474121094],"min":[603.8117065429688,276.2588195800781,-0.6000000238418579],"type":"VEC3"},{"bufferView":1,"componentType":5126,"count":744,"max":[798.1109619140625,603.5948486328125],"min":[276.2588195800781,-41.599998474121094],"type":"VEC2"},{"bufferView":2,"componentType":5126,"count":744,"max":[0.9996182918548584,1,1],"min":[-0.8621761202812195,-0.5066086649894714,-1],"type":"VEC3"},{"bufferView":3,"componentType":5126,"count":1020,"max":[791.2399291992188,644.681884765625,42.599998474121094],"min":[510.3095703125,276.2458190917969,-0.6000000238418579],"type":"VEC3"},{"bufferView":4,"componentType":5126,"count":1020,"max":[791.2399291992188,644.681884765625],"min":[276.2458190917969,-41.599998474121094],"type":"VEC2"},{"bufferView":5,"componentType":5126,"count":1020,"max":[0.8686102628707886,0.9948349595069885,1],"min":[-0.8632588982582092,-1,-1],"type":"VEC3"},{"bufferView":6,"componentType":5126,"count":1968,"max":[482.84747314453125,664.1776123046875,42.599998474121094],"min":[187.20335388183594,377.4800720214844,-0.6000000238418579],"type":"VEC3"},{"bufferView":7,"componentType":5126,"count":1968,"max":[664.1776123046875,664.1776123046875],"min":[187.20335388183594,-41.599998474121094],"type":"VEC2"},{"bufferView":8,"componentType":5126,"count":1968,"max":[0.8628416061401367,0.9996597170829773,1],"min":[-0.9072667956352234,-1,-1],"type":"VEC3"},{"bufferView":9,"componentType":5126,"count":1428,"max":[663.3687744140625,880.9835205078125,42.599998474121094],"min":[387.85992431640625,498.4203796386719,-0.6000000238418579],"type":"VEC3"},{"bufferView":10,"componentType":5126,"count":1428,"max":[880.9835205078125,880.9835205078125],"min":[387.85992431640625,-41.599998474121094],"type":"VEC2"},{"bufferView":11,"componentType":5126,"count":1428,"max":[0.8628413081169128,0.528103232383728,1],"min":[-0.8628380298614502,-1,-1],"type":"VEC3"}],"materials":[{"pbrMetallicRoughness":{"baseColorFactor":[0.0343398068028541,0.11697066774917994,0.36130677977297226,1],"metallicFactor":0.25,"roughnessFactor":0.4},"doubleSided":true,"extensions":{"KHR_materials_clearcoat":{"clearcoatFactor":0.3,"clearcoatRoughnessFactor":0}}}],"meshes":[{"primitives":[{"mode":4,"attributes":{"POSITION":0,"TEXCOORD_0":1,"NORMAL":2},"material":0}]},{"primitives":[{"mode":4,"attributes":{"POSITION":3,"TEXCOORD_0":4,"NORMAL":5},"material":0}]},{"primitives":[{"mode":4,"attributes":{"POSITION":6,"TEXCOORD_0":7,"NORMAL":8},"material":0}]},{"primitives":[{"mode":4,"attributes":{"POSITION":9,"TEXCOORD_0":10,"NORMAL":11},"material":0}]}],"extensionsUsed":["KHR_materials_clearcoat"]}